<?xml version="1.0" encoding="utf-8"?>
<!-- Svg Vector Icons : http://www.onlinewebfonts.com/icon -->
<!DOCTYPE svg PUBLIC "-//W3C//DTD SVG 1.1//EN" "http://www.w3.org/Graphics/SVG/1.1/DTD/svg11.dtd">
<svg version="1.1" xmlns="http://www.w3.org/2000/svg" xmlns:xlink="http://www.w3.org/1999/xlink" x="0px" y="0px" viewBox="0 0 1000 1000" enable-background="new 0 0 1000 1000" xml:space="preserve">
<metadata> Svg Vector Icons : http://www.onlinewebfonts.com/icon </metadata>
<g><path d="M500,990C229.4,990,10,770.6,10,500C10,229.4,229.4,10,500,10c270.6,0,490,219.4,490,490C990,770.6,770.6,990,500,990z M787.5,412.7c0-28.3-22.9-51.2-51.2-51.2l-211.3-1.7l76.9-116.2c1.3,0.1,2.6,0.2,3.9,0.2c21.2,0,38.4-17.2,38.4-38.4c0-21.2-17.2-38.4-38.4-38.4s-38.4,17.2-38.4,38.4c0,6.9,1.9,13.5,5.1,19.1l-91.5,134.6l-79.9-133.8c4-6.2,6.3-13.6,6.3-21.5c0-22.1-17.9-40-40-40c-22.1,0-40,17.9-40,40c0,22.1,17.9,40,40,40c0.2,0,0.3,0,0.5,0l69.2,117.7H275c-28.3,0-51.2,22.9-51.2,51.2v285c0,28.3,22.9,51.2,51.2,51.2h461.2c28.3,0,51.2-22.9,51.2-51.2V412.7z M703.4,628.1c-15,0-27.2-12.2-27.2-27.2c0-15,12.2-27.2,27.2-27.2c15,0,27.2,12.2,27.2,27.2C730.6,615.9,718.4,628.1,703.4,628.1z M703.4,493.6c-15,0-27.2-12.2-27.2-27.2c0-15,12.2-27.2,27.2-27.2c15,0,27.2,12.2,27.2,27.2C730.6,481.4,718.4,493.6,703.4,493.6z M285.4,420h336.2v265.8H285.4V420z"/></g>
</svg>